<svg class="svg-hidden" xmlns="http://www.w3.org/2000/svg">
    <symbol id="facebook" viewBox="0 0 32 32">
      <path d="M30.996 16.091C30.995 7.81 24.282 1.097 16 1.097S1.004 7.811 1.004 16.093c0 7.455 5.44 13.639 12.566 14.8l.086.012V20.427H9.848v-4.336h3.808v-3.302a5.293 5.293 0 0 1 5.684-5.834l-.018-.001c1.199.017 2.359.123 3.491.312l-.134-.019v3.69h-1.892a2.168 2.168 0 0 0-2.444 2.351l-.001-.009v2.812h4.159l-.665 4.336h-3.494v10.478c7.213-1.174 12.653-7.359 12.654-14.814z"/>
    </symbol>
    <symbol id="instagram" viewBox="-143 145 512 512">
      <path d="M113 446c24.8 0 45.1-20.2 45.1-45.1 0-9.8-3.2-18.9-8.5-26.3-8.2-11.3-21.5-18.8-36.5-18.8s-28.3 7.4-36.5 18.8c-5.3 7.4-8.5 16.5-8.5 26.3C68 425.8 88.2 446 113 446zM211.4 345.9v-43.4h-5.6l-37.8.1.2 43.4z"/>
      <path d="M183 401c0 38.6-31.4 70-70 70s-70-31.4-70-70c0-9.3 1.9-18.2 5.2-26.3H10v104.8C10 493 21 504 34.5 504h157c13.5 0 24.5-11 24.5-24.5V374.7h-38.2c3.4 8.1 5.2 17 5.2 26.3z"/>
      <path d="M113 145c-141.4 0-256 114.6-256 256s114.6 256 256 256 256-114.6 256-256-114.6-256-256-256zm128 229.7v104.8c0 27.3-22.2 49.5-49.5 49.5h-157C7.2 529-15 506.8-15 479.5V322.4c0-27.3 22.2-49.5 49.5-49.5h157c27.3 0 49.5 22.2 49.5 49.5v52.3z"/>
    </symbol>
    <symbol id="linkedin" viewBox="-143 145 512 512">
      <path d="M113 145c-141.4 0-256 114.6-256 256s114.6 256 256 256 256-114.6 256-256-114.6-256-256-256zM41.4 508.1H-8.5V348.4h49.9v159.7zM15.1 328.4h-.4c-18.1 0-29.8-12.2-29.8-27.7 0-15.8 12.1-27.7 30.5-27.7s29.7 11.9 30.1 27.7c.1 15.4-11.6 27.7-30.4 27.7zM241 508.1h-56.6v-82.6c0-21.6-8.8-36.4-28.3-36.4-14.9 0-23.2 10-27 19.6-1.4 3.4-1.2 8.2-1.2 13.1v86.3H71.8s.7-146.4 0-159.7h56.1v25.1c3.3-11 21.2-26.6 49.8-26.6 35.5 0 63.3 23 63.3 72.4v88.8z"/>
    </symbol>
    <symbol  id="github" viewBox="0 0 20 20">
      <path d="M10 0c5.523 0 10 4.59 10 10.253 0 4.529-2.862 8.371-6.833 9.728-.507.101-.687-.219-.687-.492 0-.338.012-1.442.012-2.814 0-.956-.32-1.58-.679-1.898 2.227-.254 4.567-1.121 4.567-5.059 0-1.12-.388-2.034-1.03-2.752.104-.259.447-1.302-.098-2.714 0 0-.838-.275-2.747 1.051A9.396 9.396 0 0 0 10 4.958a9.375 9.375 0 0 0-2.503.345C5.586 3.977 4.746 4.252 4.746 4.252c-.543 1.412-.2 2.455-.097 2.714-.639.718-1.03 1.632-1.03 2.752 0 3.928 2.335 4.808 4.556 5.067-.286.256-.545.708-.635 1.371-.57.262-2.018.715-2.91-.852 0 0-.529-.985-1.533-1.057 0 0-.975-.013-.068.623 0 0 .655.315 1.11 1.5 0 0 .587 1.83 3.369 1.21.005.857.014 1.665.014 1.909 0 .271-.184.588-.683.493C2.865 18.627 0 14.783 0 10.253 0 4.59 4.478 0 10 0"/>
    </symbol>
  </svg>