<svg xmlns="http://www.w3.org/2000/svg">
  <symbol id="table" viewBox="0 0 24 24" fill="none">
    <path stroke="#000" stroke-width="2" d="M3 9.5h18m-18 5h18M8 4.5v15m-1.8 0h11.6c1.12 0 1.68 0 2.108-.218a2 2 0 0 0 .874-.874C21 17.98 21 17.42 21 16.3V7.7c0-1.12 0-1.68-.218-2.108a2 2 0 0 0-.874-.874C19.48 4.5 18.92 4.5 17.8 4.5H6.2c-1.12 0-1.68 0-2.108.218a2 2 0 0 0-.874.874C3 6.02 3 6.58 3 7.7v8.6c0 1.12 0 1.68.218 2.108a2 2 0 0 0 .874.874c.428.218.988.218 2.108.218Z"/>
  </symbol>
  <symbol id="inline-block" viewBox="0 0 25 25">
    <path d="M16.5 6.5h.6v-.6h-.6v.6Zm-8 0v-.6h-.6v.6h.6Zm8 12v.6h.6v-.6h-.6Zm-8 0h-.6v.6h.6v-.6Zm8-12.6h-8v1.2h8V5.9Zm.6 12.6v-12h-1.2v12h1.2Zm-8.6.6h8v-1.2h-8v1.2ZM7.9 6.5v12h1.2v-12H7.9ZM4.9 5v15h1.2V5H4.9Zm14 0v15h1.2V5h-1.2Z"/>
  </symbol>
  <symbol id="float" viewBox="0 0 15 15" fill="none">
    <path stroke="#000" d="M9 5.5h6m-6-4h6m-15 8h15m-15 4h15M1.5.5h4a1 1 0 0 1 1 1v4a1 1 0 0 1-1 1h-4a1 1 0 0 1-1-1v-4a1 1 0 0 1 1-1Z"/>
  </symbol>
  <symbol id="flex" viewBox="0 0 24 24" fill="none">
    <path stroke="#000" stroke-linecap="round" stroke-linejoin="round" stroke-width="2" d="M17.5 6.5h-11M7.8 3h8.4c1.68 0 2.52 0 3.162.327a3 3 0 0 1 1.311 1.311C21 5.28 21 6.12 21 7.8v8.4c0 1.68 0 2.52-.327 3.162a3 3 0 0 1-1.311 1.311C18.72 21 17.88 21 16.2 21H7.8c-1.68 0-2.52 0-3.162-.327a3 3 0 0 1-1.311-1.311C3 18.72 3 17.88 3 16.2V7.8c0-1.68 0-2.52.327-3.162a3 3 0 0 1 1.311-1.311C5.28 3 6.12 3 7.8 3Z"/>
  </symbol>
</svg>