  <svg class="svg-hidden" xmlns="http://www.w3.org/2000/svg">
    <symbol id="hillel-logo" viewBox="0 0 17 33">
      <g fill-rule="nonzero">
        <path fill="#00aeef" d="M6.364 13.315c2.242-1.403 3.832-2.496 4.866-3.608 3.24-3.504 2.375-8.133 2.334-8.328l-.132-.676-.319.608c-.01.022-1.433 2.72-3.976 4.613-.325.237-.656.467-.992.688-.785.528-1.774 1.193-2.922 2.09-3.784 2.961-3.83 7.868-3.83 8.075v.684l.431-.533c.007-.01 1.255-1.552 4.54-3.613z"/>
        <path fill="#ffd600" d="M7.4 26.126c1.092-.683 2.12-1.19 2.948-1.593 1.326-.65 2.464-1.212 3.312-2.129 4.16-4.496 3.102-11.403 3.056-11.695l-.117-.713-.336.64c-.018.034-1.894 3.564-5.181 6.014-.373.275-.831.584-1.372.947-.99.666-2.224 1.493-3.711 2.656-4.888 3.828-4.944 10.162-4.944 10.43v.681l.431-.53c.005-.01 1.682-2.054 5.914-4.708z"/>
      </g>
    </symbol>
    <symbol id="home" viewBox="0 0 24 24">
      <path d="m21.555 8.168-9-6A1 1 0 0 0 12 2a1 1 0 0 0-.554.168l-9 6A1 1 0 0 0 3 10h1v11a1 1 0 0 0 1 1h14a1 1 0 0 0 1-1V10h1a1 1 0 0 0 .556-1.832ZM18 20H6V8.2l6-4 6 4Z"/>
    </symbol>
    <symbol id="gallery" viewBox="0 0 192 192" fill="none">
      <path stroke-width="20" d="M30 40c0-5.523 4.477-10 10-10h112c5.523 0 10 4.477 10 10v112c0 5.523-4.477 10-10 10H40c-5.523 0-10-4.477-10-10V40Z"/>
      <path stroke-linecap="round" stroke-linejoin="round" stroke-width="20" d="m30 138 34-34 24 24 40-40 34 34"/>
    </symbol>
    <symbol id="arrow-bottom" viewBox="0 0 16 16">
      <path stroke-width="0" d="M3.81 4.38 8 8.57l4.19-4.19 1.52 1.53L8 11.62 2.29 5.91l1.52-1.53z"/>
    </symbol>
    <symbol id="arrow-top" viewBox="0 0 1024 1024">
      <path d="m264.8 604.7 61.8 61.8L512 481.1l185.4 185.4 61.8-61.8L512 357.5z"/>
    </symbol>
    <symbol id="arrow-left" viewBox="0 0 1024 1024">
      <path stroke-width="20px" d="m604.7 759.2 61.8-61.8L481.1 512l185.4-185.4-61.8-61.8L357.5 512z"/>
    </symbol>
  </svg>